<!--?xml version="1.0" encoding="utf-8"?-->
<!-- Generator: Adobe Illustrator 15.1.0, SVG Export Plug-In . SVG Version: 6.00 Build 0)  -->

<svg version="1.1" id="_x32_" xmlns="http://www.w3.org/2000/svg" xmlns:xlink="http://www.w3.org/1999/xlink" x="0px" y="0px" width="512px" height="512px" viewBox="0 0 512 512" style="width: 32px; height: 32px; opacity: 1;" xml:space="preserve">
<style type="text/css">

	.st0{fill:#4B4B4B;}

</style>
<g>
	<path class="st0" d="M492.469,96.031c-15.766-15.766-37.438-21.922-57.875-18.625c3.297-20.438-2.859-42.109-18.625-57.875
		c-26.047-26.047-68.281-26.047-94.328,0c-24.594,24.594-25.938,63.594-4.109,89.813c10.906,17.281-1.719,33.313-8.625,40.219
		c-12.766,12.75-108.344,108.344-133.844,133.828c-25.203,25.219-44.188,40.797-70.25,30.734c-26-18.172-62.063-15.703-85.281,7.516
		c-26.047,26.047-26.047,68.281,0,94.328c15.766,15.766,37.453,21.938,57.891,18.625c-3.313,20.438,2.844,42.109,18.609,57.875
		c26.047,26.047,68.281,26.047,94.328,0c22.547-22.563,25.547-57.25,9.031-83.063c-9.031-20.625,15.156-48.188,31.766-64.813
		c25.5-25.5,126.188-131.297,149.125-149.125c5.391-4.203,10.766-6.375,15.844-7.313c0.672,0.719,1.297,1.5,2,2.188
		c26.047,26.063,68.281,26.063,94.344,0.016C518.516,164.313,518.516,122.078,492.469,96.031z" style="fill: rgb(255, 255, 255);"></path>
</g>
</svg>
