<?xml version="1.0" encoding="UTF-8" standalone="no"?><svg xmlns:svg="http://www.w3.org/2000/svg" xmlns="http://www.w3.org/2000/svg" version="1.1" style="overflow:visible" viewBox="-250 -250 500 500" height="500px" width="500px"><rect fill-opacity="0" fill="rgb(0,0,0)" height="500" width="500" y="-250" x="-250" /><svg version="1.1" y="-250" x="-250" viewBox="-250 -250 500 500" height="500px" width="500px" style="overflow:visible"><g transform="rotate(355,0,0)" stroke-linejoin="round" fill="#fff"><path stroke-linecap="butt" stroke-linejoin="round" stroke-width="10" stroke-opacity="1" stroke="rgb(233,6,6)" fill="none" d="m-87.571-117.402c-28.5783 19.0475-88.2898 79.512-47.2571 175.267c48.3568 112.847 116.301 102.483 190.014 77.5871c50.2642-16.9766 113.137-52.5012 98.7399-156.672c-14.3247-103.648-152.528-158.519-243.704-108.983c-61.0136 33.149099-93.6135 159.378-36.6759 221.725c59.0497 64.659499 217.706 97.5758 259.962-14.0728c47.8924-126.54 1.11029-185.5-60.8363-216.348c-53.2011-26.4925-116.332-7.7702-160.242 21.4965z" /></g></svg></svg>