<svg width="417" height="417" version="1.1" xmlns="http://www.w3.org/2000/svg" desc="Created with imagetracer.js version 1.2.6" ><path fill="rgb(237,28,36)" stroke="rgb(237,28,36)" stroke-width="1" opacity="0.9254901960784314" d="M 220.5 13 Q 228.8 15.7 241.5 14 L 242.5 15 L 250.5 15 L 257.5 17 L 262.5 17 L 271.5 20 L 275.5 20 L 298.5 28 Q 333.4 42.6 357 68.5 Q 371.3 84.2 382 103.5 Q 393 124 400 148.5 L 405 169.5 L 405 174.5 L 407 181.5 L 407 189.5 L 408 190.5 L 408 223.5 L 407 224.5 L 406 238.5 L 401 259.5 Q 394.7 279.7 385 296.5 Q 368.2 325.2 343.5 346 Q 314.1 371.6 276.5 389 L 248.5 399 L 231.5 403 L 212.5 405 L 207 400.5 Q 205.8 393.3 209.5 391 L 245.5 384 Q 268 377.5 286.5 367 Q 321.4 347.9 348 320.5 Q 372 295.5 385 259.5 L 392 229.5 L 392 221.5 L 393 220.5 L 393 193.5 L 392 192.5 L 391 177.5 L 386 159.5 L 386 155.5 L 375 124.5 Q 360.7 91.3 335.5 69 Q 311 47 275.5 36 L 259.5 32 L 254.5 32 L 247.5 30 L 239.5 30 L 238.5 29 L 204.5 29 L 203.5 30 L 194.5 30 L 177.5 33 Q 157 37.5 139.5 45 Q 98.6 63.1 71 94.5 Q 48.9 118.9 36 152.5 L 31 168.5 L 26 192.5 L 26 201.5 L 25 202.5 L 25 229.5 L 26 230.5 L 26 239.5 L 29 256.5 L 38 284.5 Q 48.9 309.1 68.5 325 Q 88.2 341.3 116.5 349 L 135.5 353 L 159.5 354 L 160.5 355 L 161.5 354 L 178.5 354 L 179.5 353 L 192.5 352 L 206.5 349 L 226.5 342 Q 259.3 327.8 281 302.5 Q 299.6 281.1 309 250.5 L 313 234.5 L 315 213.5 L 316 212.5 L 316 183.5 L 312 161.5 Q 307.5 145.5 300 132.5 Q 290 114.4 274.5 102 Q 263.5 93 248.5 88 L 234.5 85 L 209.5 85 Q 185.2 89.2 167.5 100 Q 145.7 112.7 130 131.5 Q 117 146.5 109 166.5 L 104 185.5 L 103 208.5 L 104 209.5 L 104 218.5 L 106 228.5 L 111 245.5 Q 116.8 259.8 127.5 269 Q 142.5 283.5 173.5 282 Q 207.8 276.3 225 253.5 L 237 233.5 Q 242.4 221.4 242 203.5 L 238 187.5 Q 233.4 177.1 225.5 170 Q 218.4 162.6 203.5 163 L 189 170 L 184 178.5 L 183 192.5 Q 185.9 202.6 194 207.5 L 195 212.5 L 190.5 218 L 187.5 219 L 183.5 218 L 175 210.5 Q 165.5 201 168 179.5 Q 171.5 164 182.5 156 Q 192.3 146.8 212.5 148 Q 233.9 152.1 244 167.5 L 253 183.5 L 256 193.5 L 257 215.5 Q 250.5 254.5 225.5 275 Q 211.1 287.6 190.5 294 L 176.5 297 L 154.5 297 Q 126.2 292.3 111 274.5 Q 86.3 245.7 88 190.5 L 89 189.5 L 89 182.5 L 91 172.5 Q 95.7 155.2 104 141.5 Q 117 120 135.5 104 Q 154.7 87.2 180.5 77 L 201.5 71 L 224.5 69 L 225.5 70 L 243.5 71 L 262.5 77 Q 285.2 87.3 300 105.5 Q 317.2 126.3 326 155.5 L 331 180.5 L 331 213.5 L 330 214.5 L 330 223.5 L 329 224.5 L 329 231.5 L 327 241.5 L 316 275.5 Q 302 307 277.5 328 Q 254.4 348.4 222.5 360 L 189.5 368 L 154.5 370 L 153.5 369 L 140.5 369 L 139.5 368 L 121.5 366 L 90.5 356 Q 61.9 343.6 43 321.5 L 28 299.5 L 16 267.5 L 12 249.5 L 11 233.5 L 10 232.5 L 10 199.5 L 11 198.5 L 11 190.5 L 15 168.5 L 26 136.5 Q 43.9 96.4 74.5 69 Q 102.1 43.1 140.5 28 L 165.5 20 L 179.5 17 L 200.5 15 L 201.5 14 L 219.5 14 L 220.5 13 Z " /><path fill="rgb(0,0,0)" stroke="rgb(0,0,0)" stroke-width="1" opacity="0" d="M 0 0 L 417 0 L 417 417 L 0 417 L 0 0 Z M 221 13 L 220 14 L 202 14 L 201 15 L 180 17 L 166 20 L 141 28 Q 102 43 75 69 Q 44 96 26 137 L 15 169 L 11 191 L 11 199 L 10 200 L 10 233 L 11 234 L 12 250 L 16 268 L 28 300 L 43 322 Q 62 344 91 356 L 122 366 L 140 368 L 141 369 L 154 369 L 155 370 L 190 368 L 223 360 Q 254 348 278 328 Q 302 307 316 276 L 327 242 L 329 232 L 329 225 L 330 224 L 330 215 L 331 214 L 331 181 L 326 156 Q 317 126 300 106 Q 285 87 263 77 L 244 71 L 226 70 L 225 69 L 202 71 L 181 77 Q 155 87 136 104 Q 117 120 104 142 Q 96 155 91 173 L 89 183 L 89 190 L 88 191 Q 86 246 111 275 Q 126 292 155 297 L 177 297 L 191 294 Q 211 288 226 275 Q 251 255 257 216 L 256 194 L 253 184 L 244 168 Q 234 152 213 148 Q 192 147 183 156 Q 172 164 168 180 Q 165 201 175 211 L 184 218 L 188 219 L 191 218 L 195 213 L 194 208 Q 186 203 183 193 L 184 179 L 189 170 L 204 163 Q 218 163 226 170 Q 233 177 238 188 L 242 204 Q 242 221 237 234 L 225 254 Q 208 276 174 282 Q 143 283 128 269 Q 117 260 111 246 L 106 229 L 104 219 L 104 210 L 103 209 L 104 186 L 109 167 Q 117 146 130 132 Q 146 113 168 100 Q 185 89 210 85 L 235 85 L 249 88 Q 264 93 275 102 Q 290 114 300 133 Q 307 146 312 162 L 316 184 L 316 213 L 315 214 L 313 235 L 309 251 Q 300 281 281 303 Q 259 328 227 342 L 207 349 L 193 352 L 180 353 L 179 354 L 162 354 L 161 355 L 160 354 L 136 353 L 117 349 Q 88 341 69 325 Q 49 309 38 285 L 29 257 L 26 240 L 26 231 L 25 230 L 25 203 L 26 202 L 26 193 L 31 169 L 36 153 Q 49 119 71 95 Q 99 63 140 45 Q 157 37 178 33 L 195 30 L 204 30 L 205 29 L 239 29 L 240 30 L 248 30 L 255 32 L 260 32 L 276 36 Q 311 47 336 69 Q 361 91 375 125 L 386 156 L 386 160 L 391 178 L 392 193 L 393 194 L 393 221 L 392 222 L 392 230 L 385 260 Q 372 295 348 321 Q 321 348 287 367 Q 268 377 246 384 L 210 391 Q 206 393 207 401 L 213 405 L 232 403 L 249 399 L 277 389 Q 314 372 344 346 Q 368 325 385 297 Q 395 280 401 260 L 406 239 L 407 225 L 408 224 L 408 191 L 407 190 L 407 182 L 405 175 L 405 170 L 400 149 Q 393 124 382 104 Q 371 84 357 69 Q 333 43 299 28 L 276 20 L 272 20 L 263 17 L 258 17 L 251 15 L 243 15 L 242 14 Q 229 16 221 13 Z " /></svg>