<?xml version="1.0" encoding="UTF-8" standalone="no"?><svg xmlns:svg="http://www.w3.org/2000/svg" xmlns="http://www.w3.org/2000/svg" version="1.1" style="overflow:visible" viewBox="-250 -250 500 500" height="500px" width="500px"><rect fill-opacity="0" fill="rgb(0,0,0)" height="500" width="500" y="-250" x="-250" /><svg version="1.1" y="-250" x="-250" viewBox="-250 -250 500 500" height="500px" width="500px" style="overflow:visible"><g transform="rotate(0,0,0)" stroke-linejoin="round" fill="#fff"><path stroke-linecap="butt" stroke-linejoin="miter" stroke-width="10" stroke-opacity="1" stroke="rgb(255,0,0)" fill="none" d="m120 0a120 120 0 0 1-120 120a120 120 0 0 1-120-120a120 120 0 0 1 120-120a120 120 0 0 1 120 120z" /><path stroke-linecap="butt" stroke-linejoin="miter" stroke-width="10" stroke-opacity="1" stroke="rgb(255,0,0)" fill="none" d="m60.75 0a60.75 60.75 0 0 1-60.75 60.75a60.75 60.75 0 0 1-60.75-60.75a60.75 60.75 0 0 1 60.75-60.75a60.75 60.75 0 0 1 60.75 60.75z" /></g></svg></svg>