<?xml version="1.0" encoding="UTF-8" standalone="no"?><svg xmlns:svg="http://www.w3.org/2000/svg" xmlns="http://www.w3.org/2000/svg" version="1.1" style="overflow:visible" viewBox="-250 -250 500 500" height="500px" width="500px"><rect fill-opacity="0" fill="rgb(0,0,0)" height="500" width="500" y="-250" x="-250" /><svg version="1.1" y="-250" x="-250" viewBox="-250 -250 500 500" height="500px" width="500px" style="overflow:visible"><g transform="rotate(0,0,0)" stroke-linejoin="round" fill="#fff"><path stroke-linecap="butt" stroke-linejoin="round" stroke-width="10" stroke-opacity="1" stroke="rgb(239,69,74)" fill="none" d="m83.497999-144.89c-28.8996-16.6721-65.786-7.45216-83.4828 20.8667c-17.6968-28.3399-54.609-37.5625-83.5172-20.8667c-28.8617 16.7364-39.338 53.3482-23.7054 82.8618c-33.3484 1.18923-59.7757 28.6105-59.7929 62.0296c0.03887 33.4105 26.4549 60.8007 59.7826 61.9934c-15.6524 29.524-5.16891 66.1626 23.7174 82.8946c28.8996 16.6722 65.786 7.45216 83.4828-20.8667c17.6968 28.3399 54.609 37.5625 83.5172 20.8667c28.86-16.7394 39.3311-53.3517 23.6968-82.8618c33.350099-1.18079 59.7826-28.595 59.8032-62.0262c-0.0369-33.4105-26.4514-60.8042-59.7808-61.9968c15.6494-29.5222 5.16546-66.1592-23.7192-82.8911z" /><path stroke-linecap="round" stroke-linejoin="round" stroke-width="10" stroke-opacity="1" stroke="rgb(239,69,74)" fill="none" d="m-8.352001 13.588c-13.742 6.88892-23.5177-4.48996-25.6164-10.0428c-5.68936-15.0483 9.69082-28.2072 23.2922-29.6308c24.3286-2.54598 42.4731 20.5237 42.5816 43.3259c0.16115 33.4622-31.3048 57.3175-63.052 55.8387c-42.313-1.97326-71.8651-42.3332-68.6973-83.2289c3.98837-51.461 53.0733-86.981 102.812-82.0449c60.2405 5.97787 106.951 59.3702 95.3191 117.529c-7.24469 36.225-42.9758 70.8592-102.345 67.0468" /></g></svg></svg>